PathFileType	4	(X/Y/Z)	OpenSim_Sub09_CSBaseline_Gyro.trc
DataRate	CameraRate	NumFrames	NumMarkers	Units	OrigDataRate	OrigDataStartFrame	OrigNumFrames
100	100	41	8	m	100	3651	5840
Frame#	Time	torso_imu_offset_imu	pelvis_imu_offset_imu	tibia_r_imu_offset_imu	femur_r_imu_offset_imu	tibia_l_imu_offset_imu	femur_l_imu_offset_imu	toes_r_imu_offset_imu	toes_l_imu_offset_imu
				X1	Y1	Z1	X2	Y2	Z2	X3	Y3	Z3	X4	Y4	Z4	X5	Y5	Z5	X6	Y6	Z6	X7	Y7	Z7	X8		Y8	Z8	

3651	36.50000000	0.13528075	-0.23801775	0.01163548	0.04135940	0.17441358	-0.12837571	-0.69939465	1.31747569	4.13822230	0.09411705	-0.60401978	-0.49450819	-0.00353792	0.03339206	0.72977865	-0.57076054	-0.21662071	0.75205789	-0.32722611	3.88381993	1.07761896	-0.16367702	-0.03487543	0.18622467
3652	36.51000000	0.16113334	-0.22960639	0.01732889	0.07131871	0.15672140	-0.11984640	-0.59810683	1.36247215	4.07659183	0.23201365	-0.60644924	-0.52281678	-0.02811624	0.06472451	0.73253568	-0.46124999	-0.17050926	0.74082551	-0.24100192	3.97620583	1.03786164	-0.16353762	-0.03794300	0.18835477
3653	36.52000000	0.17683319	-0.21891377	0.02608335	0.09775308	0.12811487	-0.10901260	-0.48284431	1.40075167	4.00658365	0.36872173	-0.58340441	-0.51150865	-0.03189241	0.07702722	0.76968021	-0.33687609	-0.13992002	0.72169573	-0.14868222	4.01387768	1.09273340	-0.15997777	-0.04453022	0.18492640
3654	36.53000000	0.19857385	-0.19974111	0.03991661	0.11971952	0.10071647	-0.08893913	-0.41877008	1.34972320	3.86835061	0.45625610	-0.52621115	-0.49221005	-0.00393776	0.05603599	0.82024004	-0.21769707	-0.12301175	0.70006193	-0.10809573	3.89835226	1.26448214	-0.16247429	-0.03024698	0.19173356
3655	36.54000000	0.21785500	-0.18022340	0.05270328	0.12615724	0.07658185	-0.06731767	-0.16451696	1.24854913	3.65765586	0.49769101	-0.42460550	-0.46822466	0.06937832	0.01533268	0.84358703	-0.08718064	-0.10048885	0.69692935	-0.14361471	3.63009773	1.52560802	-0.17488190	-0.02866909	0.20124638
3656	36.55000000	0.22363684	-0.16126417	0.07710382	0.12986456	0.06325944	-0.04490873	0.14235512	1.09930521	3.40547475	0.49753960	-0.31493072	-0.42899097	0.16672647	0.04065194	0.86762867	0.00270732	-0.04133059	0.68680460	-0.19175104	3.17927814	1.81230312	-0.18078866	-0.02072507	0.22005715
3657	36.56000000	0.22403353	-0.13688507	0.09206799	0.11852536	0.05223017	-0.01832568	0.31863185	0.98443829	3.12227643	0.48482782	-0.21505942	-0.37131657	0.17916308	0.08460164	0.91853123	0.08302466	0.00606003	0.66535901	-0.18158726	2.61707269	2.02769016	-0.19635486	-0.02739524	0.24065745
3658	36.57000000	0.21261018	-0.11671213	0.10899542	0.09814423	0.03685849	0.00538447	0.47221787	0.95618703	2.79261989	0.47795621	-0.15627438	-0.30547202	0.12291880	0.09420943	0.96716640	0.16368862	0.03853437	0.64288811	-0.20029193	2.06836365	2.11934982	-0.19319874	-0.02525050	0.25582943
3659	36.58000000	0.19333654	-0.10021641	0.12786430	0.08479879	0.01870008	0.02750717	0.67196564	0.93703410	2.34508638	0.47429928	-0.12609940	-0.22814211	0.03263509	0.11920544	1.01478402	0.19317445	0.07815448	0.61215267	-0.22608909	1.61378542	2.09718403	-0.18991418	-0.04261633	0.26542411
3660	36.59000000	0.16062448	-0.08628814	0.14114454	0.08045662	-0.00734546	0.04084593	0.83453645	0.85159110	1.87336205	0.45951793	-0.08916464	-0.13381772	0.00863785	0.12454730	1.05638837	0.20652123	0.13892567	0.55606013	-0.19335285	1.26226660	1.98185786	-0.20263682	-0.07651719	0.28897822
3661	36.60000000	0.13299713	-0.07634545	0.16097657	0.09947979	-0.02763386	0.05728580	0.79851812	0.66247167	1.39432680	0.44447308	-0.01851577	0.00726330	0.06176196	0.17252756	1.09657379	0.20526217	0.20278023	0.50997591	-0.03282396	0.95159799	1.75830744	-0.19859509	-0.09463465	0.29095737
3662	36.61000000	0.11759594	-0.06608007	0.16958227	0.10847647	-0.05789572	0.07194401	0.72213916	0.42370946	0.84616289	0.42096748	0.09840971	0.17542052	0.14490467	0.22219770	1.16507429	0.18579406	0.24845293	0.46223398	0.18254373	0.58493197	1.45764635	-0.19881386	-0.12573116	0.30044266
3663	36.62000000	0.09791503	-0.04918414	0.17710813	0.14185756	-0.08681888	0.08517020	0.70888242	0.19268390	0.30335368	0.43198035	0.21604292	0.35324483	0.09830806	0.23984222	1.22029605	0.17876067	0.29937403	0.41695167	0.35368835	0.16178579	1.11088147	-0.18142936	-0.15288718	0.30410240
3664	36.63000000	0.09363096	-0.02494237	0.18187242	0.18604467	-0.11171981	0.09843776	0.74032932	-0.04194585	-0.16559640	0.42543554	0.25277542	0.50838901	0.03055296	0.22589468	1.27629986	0.18107809	0.34968126	0.38791856	0.46376120	-0.26829259	0.78453736	-0.19719755	-0.19656203	0.34724825
3665	36.64000000	0.10186846	0.01066995	0.18249185	0.24964297	-0.13562598	0.10434899	0.87675038	-0.19700077	-0.52321036	0.35963698	0.19667227	0.62234550	0.03072280	0.24148025	1.32441166	0.17866643	0.39711374	0.34837741	0.47721592	-0.62106433	0.55021277	-0.22988685	-0.23701158	0.41926378
3666	36.65000000	0.11457141	0.05405206	0.18017881	0.32389809	-0.16706942	0.10227509	0.98955016	-0.27002994	-0.80050714	0.25766212	0.08349899	0.66579685	0.11557693	0.22827342	1.37444860	0.23817610	0.42308079	0.33501643	0.42731031	-0.85427408	0.40692693	-0.26272729	-0.27600779	0.50160961
3667	36.66000000	0.12488969	0.10406046	0.18269279	0.39502878	-0.21850367	0.10614524	0.99602298	-0.35395245	-1.02426880	0.14237109	-0.04619024	0.64959488	0.25322378	0.22382854	1.46916971	0.30413101	0.39283152	0.33248377	0.35859784	-0.99928440	0.34499763	-0.27430547	-0.30749585	0.56811323
3668	36.67000000	0.14306618	0.16338516	0.18271243	0.47716942	-0.28149977	0.11031999	0.92635925	-0.49015932	-1.18909216	0.05273679	-0.19012914	0.58401775	0.42459088	0.27859425	1.56108988	0.38134724	0.36776955	0.31640436	0.33832705	-1.15620795	0.32201779	-0.29156240	-0.38452845	0.61812675
3669	36.68000000	0.17005045	0.22079298	0.17972177	0.53165715	-0.36403743	0.10098312	0.87375583	-0.63243409	-1.28848273	-0.05035282	-0.37773288	0.49589809	0.63978023	0.35866959	1.65238540	0.50068376	0.37592219	0.29092161	0.22532220	-1.21007619	0.38423991	-0.21707980	-0.52286027	0.62566538
3670	36.69000000	0.20217198	0.29366412	0.19106123	0.59625078	-0.44721365	0.09243854	0.86738030	-0.71109342	-1.35210296	-0.18712859	-0.57923662	0.38762599	0.76430546	0.42379050	1.77588836	0.63100195	0.39970183	0.26182290	0.68580040	-1.95290609	0.23455761	-0.24137942	-0.66936792	0.62012543
3671	36.70000000	0.22473827	0.34830275	0.20584426	0.66948481	-0.48237259	0.12275639	0.95783428	-0.95061733	-1.46150979	-0.35467453	-0.77447433	0.22162238	0.78747516	0.46689067	1.90492506	0.80923885	0.44746897	0.21887850	0.39807440	-3.05010990	0.26742846	-0.16907661	-0.85190692	0.61012444
3672	36.71000000	0.24431479	0.37541431	0.21808551	0.62245475	-0.49003961	0.23315876	0.72449202	-1.55806489	-1.48248727	-0.56176308	-1.04786942	0.04840261	0.66351207	0.54520583	1.96305753	0.93538514	0.52875257	0.19932558	0.05714346	-4.11123112	0.10841379	-0.15260425	-1.06642014	0.60917635
3673	36.72000000	0.24712429	0.38236895	0.22937604	0.44828107	-0.50396810	0.36585382	-0.45757914	-2.08808052	-1.04394901	-0.66344892	-1.23732763	-0.21213361	0.35688458	0.54274180	1.95667588	0.98083554	0.61859887	0.14330857	0.61533063	-4.71424506	-0.54151724	-0.15256699	-1.32633242	0.63070612
3674	36.73000000	0.20070014	0.37977985	0.23582610	0.21952215	-0.49229389	0.46841953	-1.93817432	-1.62949389	-0.31011505	-0.78812974	-1.15783882	-0.47565319	0.13798769	0.54213415	1.93074739	0.93531959	0.65363804	0.06977481	0.70013514	-3.79676635	-0.93619266	-0.16325793	-1.58895612	0.68837871
3675	36.74000000	0.12728176	0.38065191	0.21742299	-0.00934689	-0.44970809	0.52395847	-0.94053033	-0.48061705	-0.48143760	-1.12396419	-0.87253255	-0.47206415	0.05773466	0.54106463	1.93639518	0.80962426	0.65385507	0.01227264	-0.01973416	-2.81832069	-0.98023953	-0.16851373	-1.88750408	0.76552127
3676	36.75000000	0.06317575	0.38449809	0.14724456	-0.24621916	-0.41861135	0.55854369	1.36737138	-0.00964894	-1.64568566	-1.24314029	-0.34421214	-0.17323568	-0.06309504	0.52103834	1.96469275	0.63526240	0.63064595	-0.05071923	-0.29625286	-2.24074223	-0.73498617	-0.16487656	-2.18999925	0.81442848
3677	36.76000000	-0.00420758	0.39421295	0.07089607	-0.44416121	-0.43358316	0.44873359	3.43395197	-0.21520204	-2.66928922	-1.15750708	0.19785753	0.42857808	-0.09343646	0.51227251	1.98781393	0.46239315	0.62902226	-0.13688269	-0.16901587	-1.99168469	-0.45556509	-0.18977812	-2.50244362	0.89183636
3678	36.77000000	-0.10246444	0.40684991	0.02351388	-0.47768119	-0.50992360	0.16549369	4.25961425	-0.18748249	-2.67554856	-0.99499704	-0.10408588	0.99931545	-0.04036863	0.48441472	2.01285094	0.27661699	0.62366688	-0.20357151	-0.07719703	-2.05496764	-0.38208272	-0.21043475	-2.82825397	1.02665147
3679	36.78000000	-0.17206297	0.39929132	0.00574698	-0.36299778	-0.57346805	-0.15350449	4.34909399	0.16963188	-1.72110038	-0.13862943	-0.57219977	1.04118113	-0.06510485	0.40061031	2.05831154	0.11729369	0.66086032	-0.26598541	0.55450442	-1.20175874	-0.41159358	-0.19742581	-3.15978054	1.19741547
3680	36.79000000	-0.15278575	0.36820284	-0.02721961	-0.20646648	-0.53482040	-0.32914700	4.29679384	0.22536277	-1.03780966	0.90684084	-0.39267185	0.63740470	-0.11372910	0.27330415	2.14721145	0.03832745	0.74693544	-0.33607745	0.59035574	-0.78498565	-0.32088342	-0.20653357	-3.50179432	1.39304790
3681	36.80000000	-0.08574891	0.32342636	-0.05396003	-0.06466281	-0.44437930	-0.36142226	3.56057285	-0.05501586	-1.05340216	0.71240602	-0.35924592	0.15170789	-0.04709627	0.20026504	2.25643908	0.01020353	0.80824069	-0.42759512	0.61126682	-0.75650677	-0.31130997	-0.25596940	-3.86692070	1.60444547
3682	36.81000000	-0.00466213	0.28600446	-0.06640553	0.10027953	-0.35081590	-0.34857663	2.32589034	-0.59472263	-1.16762492	-0.06854084	-0.53666201	-0.27476431	0.11873109	0.18696991	2.28923746	0.00330228	0.84481859	-0.56047762	0.71615625	-0.54081973	-0.29790905	-0.33295799	-4.16566004	1.84528432
3683	36.82000000	0.06919801	0.26412629	-0.07684090	0.24833706	-0.26101205	-0.32338796	0.89353363	-1.20349915	-1.19511850	-0.56019309	-0.64485470	-0.66800904	0.29523901	0.16433773	2.26062077	0.00519329	0.85013861	-0.73503306	0.61959649	-0.25016024	-0.22329723	-0.55778910	-4.43571966	2.13955682
3684	36.83000000	0.12794943	0.26021142	-0.08348497	0.38889338	-0.17215044	-0.25034629	-0.33981123	-1.48979658	-1.21589460	-0.88370023	-0.78726288	-1.04331214	0.46992831	0.22763876	2.26452285	0.01202849	0.83083905	-0.94386038	0.47744768	-0.13238118	-0.15447333	-0.79459560	-4.58235726	2.38177618
3685	36.84000000	0.16241077	0.25851463	-0.07251445	0.52619449	-0.11558244	-0.14001629	-1.22245301	-1.35044888	-1.10336033	-1.06353898	-0.79138240	-1.33043346	0.61799726	0.31874335	2.28471991	-0.01909582	0.76393477	-1.09955798	0.36405514	-0.09062895	-0.10212358	-0.93371495	-4.44565570	2.51737565
3686	36.85000000	0.16688585	0.25885881	-0.05384835	0.63233616	-0.05199463	-0.04428600	-1.69958125	-1.13793861	-0.78501250	-0.94336489	-0.65035987	-1.42608487	0.55512049	0.39318268	2.25811748	-0.05281349	0.65829894	-1.28886996	0.27634173	-0.05473909	-0.07839619	-1.05135384	-4.23771199	2.61021373
3687	36.86000000	0.16088217	0.24932298	-0.04092268	0.70443038	0.00026854	0.01336090	-1.83219228	-1.02047670	-0.48742322	-0.71242150	-0.60385207	-1.37756703	0.33181133	0.36970391	2.19933536	-0.08250165	0.61809171	-1.49902006	0.23691109	-0.04942454	-0.07544998	-1.14756598	-4.11389912	2.71153082
3688	36.87000000	0.15127391	0.21813233	-0.00549210	0.74060741	0.02746610	0.03242093	-1.88327778	-0.82122312	-0.40232930	-0.48247301	-0.57269460	-1.27384097	0.02588712	0.14698323	2.13728400	-0.02991896	0.60384188	-1.66793172	0.19360836	-0.04558247	-0.05924697	-0.98770687	-3.99778620	2.75596377
3689	36.88000000	0.14785747	0.17755132	0.03134972	0.76177733	0.04013463	0.02478718	-1.98007308	-0.65934171	-0.44740894	-0.19339378	-0.48694777	-1.17560576	-0.18906659	-0.06979761	2.02979984	0.10432935	0.51312374	-1.77310634	0.18634952	-0.04991673	-0.05577907	-0.58128056	-3.81637599	2.74797769
3690	36.89000000	0.14390751	0.13666190	0.06931439	0.75766894	0.03711386	-0.01595661	-1.94082821	-0.51815122	-0.43197446	0.08732575	-0.38909609	-1.13704377	-0.24384709	-0.24382414	1.85335365	0.25095370	0.37174604	-1.84654242	0.19939785	-0.02523385	-0.04708312	-0.18846441	-3.58785036	2.72832249
3691	36.90000000	0.14610315	0.09221609	0.09560548	0.73853229	0.03239941	-0.06891937	-1.57796849	-0.34370398	-0.35001928	0.25673758	-0.30915191	-1.11800977	-0.08196349	-0.35604647	1.66017968	0.34792061	0.18131355	-1.88274518	0.21437118	-0.00673360	-0.04076610	0.12622199	-3.11309948	2.63310131
